# xmcd
#
# Track frame offsets:
#	150
#	17565
#	35625
#	59660
#	80840
#	97860
#	121590
#	142970
#
# Disc length: 2178 seconds
#
# Revision: 0
# Processed by: cddbd v1.4PL0 Copyright (c) Steve Scherf et al.
# Submitted via: dBpowerAMP V4.0
#
DISCID=61088008
DTITLE=Jackie Neal - Lookin' For A Sweet Thang
DYEAR=1900
DGENRE=
TTITLE0=Your Dr. Feel Good
TTITLE1=Keep Ie Up Woman
TTITLE2=Thang Wrong Man
TTITLE3=Sweet Thang
TTITLE4=Nooky Thang
TTITLE5=M.A.N.
TTITLE6=Shattered By A Whisper
TTITLE7=Feel Good (Remix)
EXTD=
EXTT0=
EXTT1=
EXTT2=
EXTT3=
EXTT4=
EXTT5=
EXTT6=
EXTT7=
PLAYORDER=
